{"glyphs":{"0":{"ha":865,"x_min":120,"x_max":745,"o":"m 432 994 l 432 946 q 552 906 503 946 q 632 800 602 866 q 677 654 663 734 q 691 491 691 573 q 677 327 691 408 q 632 180 663 246 q 552 75 602 115 q 432 36 503 36 q 312 75 362 36 q 232 180 263 115 q 188 326 202 246 q 174 490 174 406 l 120 490 q 206 120 122 255 q 432 -14 290 -14 q 659 122 574 -14 q 745 491 745 257 q 659 859 745 724 q 432 994 574 994 l 432 994 "},"1":{"ha":668,"x_min":120,"x_max":548,"o":"m 339 489 l 388 489 l 388 989 l 339 989 l 120 790 l 151 757 l 339 918 l 339 489 l 339 489 m 423 49 l 388 49 l 339 49 l 308 49 l 178 49 l 178 0 l 548 0 l 548 49 l 423 49 l 423 49 "},"2":{"ha":795,"x_min":120,"x_max":675,"o":"m 653 49 l 185 49 l 120 49 l 120 0 l 675 0 l 675 49 l 653 49 l 653 49 m 415 949 q 555 894 505 947 q 605 757 605 841 q 597 685 605 724 q 566 597 589 646 q 500 489 543 549 l 559 489 q 654 763 654 624 q 626 883 654 830 q 544 967 598 936 q 415 997 491 997 q 301 975 347 997 q 224 920 254 952 q 178 853 194 887 q 154 795 161 819 l 202 778 q 231 846 210 806 q 295 917 251 886 q 415 949 338 948 l 415 949 "},"3":{"ha":877,"x_min":120,"x_max":757,"o":"m 325 573 l 355 541 q 606 499 513 560 q 705 306 699 438 l 757 306 q 660 524 754 446 q 394 586 565 602 l 695 941 l 695 989 l 194 989 l 194 941 l 631 941 l 325 573 l 325 573 m 438 39 q 437 39 438 39 q 435 39 436 39 q 331 54 377 39 q 251 89 285 68 q 195 132 217 110 q 163 171 172 154 l 120 145 q 154 103 130 128 q 219 51 179 78 q 313 8 259 25 q 435 -10 367 -10 q 437 -10 436 -10 q 438 -10 438 -10 l 438 39 l 438 39 "},"4":{"ha":887,"x_min":120,"x_max":767,"o":"m 384 296 l 181 296 l 603 989 l 546 989 l 120 296 l 120 248 l 384 248 l 384 296 l 384 296 m 635 296 l 635 595 l 586 595 l 586 504 l 586 296 l 586 248 l 586 113 l 586 0 l 635 0 l 635 248 l 767 248 l 767 296 l 635 296 l 635 296 "},"5":{"ha":873,"x_min":120,"x_max":753,"o":"m 443 540 q 621 480 551 536 q 700 312 690 423 l 753 312 q 668 508 746 436 q 452 588 591 580 q 327 580 379 592 q 244 552 274 567 l 320 940 l 731 940 l 731 988 l 281 988 l 185 509 l 235 502 q 292 523 237 506 q 443 540 347 541 l 443 540 m 436 38 q 435 38 436 38 q 434 38 434 38 q 328 54 375 38 q 247 91 281 69 q 192 135 213 113 q 163 170 171 156 l 120 144 q 172 86 132 121 q 276 21 211 50 q 435 -11 342 -8 q 436 -11 436 -11 q 436 -11 436 -11 l 436 38 l 436 38 "},"6":{"ha":886,"x_min":120,"x_max":766,"o":"m 443 39 q 443 39 443 39 q 442 39 443 39 q 249 116 325 39 q 174 312 174 192 q 249 509 174 432 q 442 586 325 586 q 635 510 560 586 q 712 312 710 434 l 766 312 q 723 479 764 406 q 608 593 681 551 q 442 634 535 634 q 295 602 362 634 l 565 989 l 507 989 q 468 933 507 989 q 373 799 428 877 q 267 647 318 721 q 191 532 216 573 q 138 414 156 475 q 120 312 120 354 q 162 146 120 219 q 276 31 203 73 q 442 -10 349 -10 q 443 -10 443 -10 q 443 -10 443 -10 l 443 39 l 443 39 "},"7":{"ha":811,"x_min":120,"x_max":691,"o":"m 637 941 l 691 941 l 691 989 l 120 989 l 120 941 l 307 941 l 637 941 l 637 941 m 469 574 l 207 0 l 261 0 l 524 574 l 469 574 l 469 574 "},"8":{"ha":870,"x_min":120,"x_max":750,"o":"m 435 41 q 243 108 316 43 q 169 279 169 174 q 243 447 169 382 q 435 513 316 513 q 627 447 552 513 q 701 279 701 382 q 701 278 701 278 q 701 277 701 277 l 750 277 q 750 278 750 277 q 750 279 750 278 q 729 381 750 328 q 664 475 709 433 q 548 539 619 517 q 658 626 618 568 q 699 753 699 683 q 670 869 699 812 q 582 961 641 925 q 435 998 524 998 q 288 961 347 998 q 199 869 229 925 q 169 753 169 812 q 211 626 169 683 q 322 539 253 568 q 206 475 250 517 q 141 381 161 433 q 120 279 120 328 q 202 78 120 160 q 435 -8 285 -5 l 435 41 l 435 41 m 219 753 q 245 854 219 809 q 319 924 271 898 q 435 950 368 950 q 550 924 502 950 q 624 854 598 898 q 650 753 650 809 q 625 659 650 703 q 552 588 600 615 q 435 561 504 561 q 317 588 365 561 q 244 659 269 615 q 219 753 219 703 l 219 753 "},"9":{"ha":886,"x_min":120,"x_max":766,"o":"m 443 949 q 443 949 443 949 q 443 949 443 949 q 637 873 561 949 q 712 677 712 797 q 637 480 712 557 q 443 403 561 403 q 251 479 326 403 q 174 676 176 554 l 120 676 q 163 510 121 582 q 278 396 204 438 q 443 355 351 355 q 591 386 524 355 l 320 0 l 379 0 q 418 56 379 0 q 513 189 458 111 q 619 341 568 268 q 695 456 670 415 q 748 574 730 514 q 766 677 766 634 q 724 843 766 770 q 609 957 682 915 q 443 999 537 999 q 443 999 443 999 q 443 999 443 999 l 443 949 l 443 949 "},"\u0000":{"ha":1057,"x_min":0,"x_max":0,"o":""},"\u001d":{"ha":1057,"x_min":0,"x_max":0,"o":""}," ":{"ha":450,"x_min":0,"x_max":0,"o":""}," ":{"ha":450,"x_min":0,"x_max":0,"o":""},"!":{"ha":319,"x_min":120,"x_max":199,"o":"m 199 40 q 187 12 199 23 q 160 0 176 0 q 132 12 143 0 q 120 40 120 23 q 132 67 120 56 q 160 79 143 79 q 187 67 176 79 q 199 40 199 56 l 199 40 m 139 246 l 136 989 l 184 989 l 179 246 l 139 246 l 139 246 "},"\"":{"ha":527,"x_min":120,"x_max":407,"o":"m 407 983 l 308 746 l 280 746 l 345 983 l 407 983 l 407 983 m 247 983 l 148 746 l 120 746 l 185 983 l 247 983 l 247 983 m 247 983 l 148 746 l 120 746 l 185 983 l 247 983 l 247 983 m 247 983 l 148 746 l 120 746 l 185 983 l 247 983 l 247 983 "},"#":{"ha":1205,"x_min":120,"x_max":1085,"o":"m 833 486 l 782 486 l 751 342 l 602 342 l 401 342 l 352 342 l 285 342 l 130 342 l 120 294 l 340 294 l 280 0 l 329 0 l 391 294 l 742 294 l 681 0 l 730 0 l 793 294 l 1003 294 l 1013 342 l 802 342 l 833 486 l 833 486 m 873 678 l 938 989 l 889 989 l 823 678 l 472 678 l 537 989 l 487 989 l 423 678 l 202 678 l 191 630 l 411 630 l 382 486 l 432 486 l 462 630 l 554 630 l 812 630 l 863 630 l 982 630 l 1074 630 l 1085 678 l 873 678 l 873 678 "},"$":{"ha":945,"x_min":120,"x_max":825,"o":"m 476 523 q 362 551 417 535 q 264 589 307 567 q 195 645 220 611 q 169 727 169 678 q 245 887 169 826 q 442 948 321 948 q 486 946 465 948 l 486 994 l 486 1066 l 486 1133 l 436 1133 l 436 997 q 274 962 345 996 q 162 868 203 928 q 120 727 120 808 q 207 570 120 629 q 465 475 294 511 q 582 446 526 463 q 681 406 637 430 q 751 346 725 382 q 777 260 777 311 q 752 160 777 202 q 684 91 727 118 q 588 52 642 65 q 478 40 534 40 q 436 41 456 40 l 436 -8 l 436 -40 l 436 -143 l 486 -143 l 486 -10 q 652 19 585 -8 q 756 87 718 45 q 809 175 794 128 q 825 260 825 221 q 810 340 825 303 q 758 410 795 377 q 651 470 720 442 q 476 523 583 498 l 476 523 "},"%":{"ha":1161,"x_min":120,"x_max":1041,"o":"m 920 990 l 303 0 l 244 0 l 862 990 l 920 990 l 920 990 m 322 998 l 322 952 q 435 908 389 952 q 480 795 480 863 q 435 684 480 729 q 322 639 389 639 q 210 684 255 639 q 165 795 165 729 l 120 795 q 178 652 120 710 q 322 594 236 594 q 466 652 408 594 q 524 795 524 710 q 466 940 524 882 q 322 998 408 998 l 322 998 m 839 36 q 838 36 839 36 q 838 36 838 36 q 726 81 771 36 q 681 192 681 126 q 726 305 681 259 q 838 351 771 351 q 950 306 905 351 q 996 193 994 261 l 1041 193 q 981 338 1039 281 q 838 395 924 395 q 694 336 753 395 q 635 192 635 278 q 694 48 635 106 q 838 -10 753 -10 q 838 -10 838 -10 q 839 -10 839 -10 l 839 36 l 839 36 "},"&":{"ha":1113,"x_min":120,"x_max":993,"o":"m 828 213 q 881 328 861 271 q 912 435 901 386 l 869 446 q 839 351 858 402 q 791 248 820 300 q 425 622 600 421 q 351 885 302 768 q 406 945 371 922 q 478 968 441 968 q 563 944 531 968 q 609 884 595 920 q 624 809 624 848 l 673 810 q 662 883 673 847 q 628 949 651 919 q 568 998 605 980 q 478 1017 531 1017 q 379 986 427 1017 q 307 904 332 955 q 350 640 255 782 q 177 452 235 548 q 121 260 120 355 l 171 260 q 234 448 173 360 q 378 600 294 535 q 550 414 434 530 q 764 206 665 298 q 644 85 717 134 q 467 27 570 36 l 467 -21 q 666 41 583 -12 q 801 172 748 94 l 960 27 l 993 63 l 828 213 l 828 213 "},"'":{"ha":367,"x_min":120,"x_max":247,"o":"m 247 983 l 148 746 l 120 746 l 185 983 l 247 983 l 247 983 "},"(":{"ha":511,"x_min":120,"x_max":391,"o":"m 364 -129 l 326 -160 q 130 500 120 103 q 353 1138 148 884 l 391 1108 q 206 713 255 939 q 196 262 156 487 q 364 -129 235 36 l 364 -129 "},")":{"ha":512,"x_min":120,"x_max":392,"o":"m 147 -129 l 147 -129 q 316 262 277 36 q 306 713 355 487 q 120 1108 257 939 l 159 1138 q 382 500 363 884 q 185 -160 392 103 l 147 -129 "},"*":{"ha":629,"x_min":120,"x_max":508,"o":"m 342 904 l 508 821 l 484 777 l 328 880 l 339 694 l 290 694 l 301 880 l 144 777 l 120 821 l 287 904 l 120 989 l 144 1031 l 301 928 l 290 1114 l 339 1114 l 328 928 l 484 1031 l 508 989 l 342 904 l 342 904 "},"+":{"ha":788,"x_min":120,"x_max":668,"o":"m 668 468 l 418 468 l 418 220 l 370 220 l 370 468 l 120 468 l 120 517 l 370 517 l 370 768 l 418 768 l 418 517 l 668 517 l 668 468 l 668 468 "},",":{"ha":367,"x_min":120,"x_max":247,"o":"m 247 80 l 148 -157 l 120 -157 l 185 80 l 247 80 l 247 80 "},"-":{"ha":706,"x_min":120,"x_max":586,"o":"m 586 518 l 586 469 l 120 469 l 120 518 l 586 518 l 586 518 "},"­":{"ha":706,"x_min":120,"x_max":586,"o":"m 586 518 l 586 518 l 120 518 l 120 469 l 586 469 l 586 518 "},".":{"ha":318,"x_min":120,"x_max":198,"o":"m 198 40 q 186 12 198 23 q 159 0 175 0 q 131 12 142 0 q 120 40 120 23 q 131 67 120 56 q 159 79 142 79 q 186 67 175 79 q 198 40 198 56 l 198 40 "},"/":{"ha":716,"x_min":120,"x_max":596,"o":"m 596 1132 l 172 -146 l 120 -146 l 544 1132 l 596 1132 l 596 1132 "},":":{"ha":319,"x_min":120,"x_max":199,"o":"m 120 635 q 132 664 120 653 q 160 675 143 675 q 187 664 176 675 q 199 635 199 653 q 187 609 199 620 q 160 598 176 598 q 132 609 143 598 q 120 635 120 620 l 120 635 m 199 40 q 187 12 199 23 q 160 0 176 0 q 132 12 143 0 q 120 40 120 23 q 132 67 120 56 q 160 79 143 79 q 187 67 176 79 q 199 40 199 56 l 199 40 "},";":{"ha":367,"x_min":120,"x_max":247,"o":"m 166 635 q 178 664 166 653 q 206 675 189 675 q 233 664 222 675 q 245 635 245 653 q 233 609 245 620 q 206 598 222 598 q 178 609 189 598 q 166 635 166 620 l 166 635 m 247 80 l 148 -157 l 120 -157 l 185 80 l 247 80 l 247 80 "},"<":{"ha":723,"x_min":120,"x_max":603,"o":"m 603 701 l 175 493 l 603 285 l 603 230 l 120 465 l 120 521 l 603 756 l 603 701 l 603 701 "},"=":{"ha":788,"x_min":120,"x_max":668,"o":"m 668 632 l 668 583 l 120 583 l 120 632 l 668 632 l 668 632 m 120 401 l 668 401 l 668 352 l 120 352 l 120 401 l 120 401 "},">":{"ha":723,"x_min":120,"x_max":603,"o":"m 120 701 l 120 701 l 120 756 l 603 521 l 603 465 l 120 230 l 120 285 l 548 493 l 120 701 "},"?":{"ha":747,"x_min":120,"x_max":627,"o":"m 374 997 q 215 938 288 996 q 120 756 143 880 l 169 745 q 242 896 187 845 q 374 948 297 946 l 374 997 l 374 997 m 578 739 q 578 729 578 734 q 528 596 565 655 q 447 484 491 537 q 364 374 399 432 q 327 246 329 317 l 376 246 q 409 353 378 304 q 484 454 440 403 q 572 572 531 507 q 626 723 613 637 q 627 739 627 731 l 578 739 l 578 739 m 352 79 q 325 67 336 79 q 314 40 314 56 q 325 12 314 23 q 352 0 336 0 q 380 12 368 0 q 391 40 391 23 q 380 67 391 56 q 352 79 368 79 l 352 79 "},"@":{"ha":1408,"x_min":120,"x_max":1288,"o":"m 1284 456 q 1254 606 1278 531 q 1186 748 1230 681 q 1076 869 1142 816 q 921 952 1010 922 q 718 983 832 983 q 329 855 483 983 q 141 498 175 727 q 170 199 120 336 q 334 -27 220 63 q 539 -122 427 -96 q 761 -137 651 -148 q 961 -87 872 -127 l 944 -45 q 634 -95 787 -109 q 362 9 480 -80 q 212 217 257 91 q 186 492 166 343 q 359 820 217 701 q 718 939 502 939 q 953 887 839 939 q 1145 728 1067 836 q 1239 452 1223 620 q 1230 282 1245 360 q 1181 157 1215 204 q 1096 109 1147 109 q 1035 134 1057 109 q 1000 202 1012 159 q 985 300 989 245 q 981 413 981 354 l 981 703 l 937 703 l 937 589 q 837 693 900 655 q 692 731 774 731 q 690 731 691 731 q 690 731 690 731 l 690 687 q 690 687 690 687 q 692 687 691 687 q 821 650 767 687 q 904 552 876 613 q 933 414 933 490 q 904 276 933 338 q 821 177 876 213 q 692 140 767 140 q 561 177 616 140 q 476 275 506 213 q 446 414 446 337 l 398 414 q 435 253 399 325 q 537 138 471 181 q 692 95 603 95 q 843 137 779 95 q 943 249 908 179 q 967 155 950 196 q 1015 89 984 113 q 1096 64 1046 64 q 1192 101 1154 64 q 1252 197 1230 138 q 1281 324 1274 255 q 1284 456 1288 392 l 1284 456 "},"A":{"ha":1049,"x_min":120,"x_max":928,"o":"m 928 0 l 876 0 l 524 911 l 172 0 l 120 0 l 502 989 l 547 989 l 928 0 l 928 0 "},"B":{"ha":915,"x_min":120,"x_max":795,"o":"m 595 532 q 702 613 662 559 q 742 746 742 668 q 707 875 742 820 q 612 959 672 929 q 473 989 552 989 l 120 989 l 120 941 l 473 941 q 630 891 571 941 q 688 746 688 841 q 660 639 688 682 q 583 573 632 596 q 473 551 535 551 l 120 551 l 120 503 l 169 503 l 255 503 l 498 503 q 620 478 564 503 q 710 403 676 454 q 743 274 743 352 q 709 147 743 196 q 618 73 675 97 q 498 49 562 49 l 255 49 l 169 49 l 120 49 l 120 0 l 498 0 q 646 30 578 0 q 754 121 714 60 q 795 274 795 182 q 769 399 795 347 q 698 485 743 452 q 595 532 653 519 l 595 532 "},"C":{"ha":955,"x_min":120,"x_max":835,"o":"m 640 989 q 678 989 651 989 q 747 989 710 989 q 809 989 784 989 q 835 989 835 989 l 835 941 q 809 941 833 941 q 751 941 785 941 q 685 941 716 941 q 640 941 654 941 q 403 889 508 941 q 238 738 299 837 q 178 495 178 638 q 213 305 178 388 q 312 165 249 222 q 459 79 375 108 q 640 49 543 49 q 674 49 649 49 q 732 49 699 49 q 749 49 743 49 q 758 49 755 49 q 762 49 760 49 q 765 49 763 49 q 772 49 767 49 q 786 49 777 49 l 835 49 l 835 0 q 807 0 833 0 q 746 0 782 0 q 680 0 711 0 q 640 0 650 0 q 373 57 491 0 q 188 225 256 115 q 120 495 120 336 q 159 706 120 614 q 269 862 198 799 q 434 957 339 924 q 640 989 528 989 l 640 989 "},"D":{"ha":1035,"x_min":120,"x_max":915,"o":"m 858 495 q 858 495 858 495 q 822 305 858 388 q 724 165 786 222 q 577 79 661 108 q 395 49 493 49 q 361 49 386 49 q 303 49 336 49 q 257 49 280 49 q 169 49 207 49 l 168 49 l 168 989 l 120 989 l 120 49 l 120 49 l 120 0 l 120 0 l 120 0 l 168 0 l 168 0 q 257 0 208 0 q 346 0 306 0 q 395 0 386 0 q 662 57 545 0 q 847 225 780 115 q 915 495 915 336 q 915 495 915 495 l 858 495 l 858 495 "},"E":{"ha":889,"x_min":120,"x_max":769,"o":"m 769 939 l 120 939 l 120 989 l 769 989 l 769 939 l 769 939 m 769 470 l 120 470 l 120 519 l 769 519 l 769 470 l 769 470 m 769 0 l 120 0 l 120 49 l 769 49 l 769 0 l 769 0 "},"F":{"ha":889,"x_min":120,"x_max":769,"o":"m 769 989 l 769 939 l 120 939 l 120 989 l 769 989 l 769 989 m 769 519 l 769 471 l 169 471 l 169 0 l 120 0 l 120 519 l 769 519 l 769 519 "},"G":{"ha":1126,"x_min":120,"x_max":1006,"o":"m 583 996 q 341 917 445 983 q 178 740 237 850 q 120 491 120 631 q 178 243 120 353 q 341 67 237 134 q 583 -12 445 1 q 643 -14 614 -14 l 643 36 q 583 38 614 35 q 285 178 395 56 q 172 491 176 301 q 285 806 176 683 q 583 946 395 928 q 810 923 719 955 q 946 850 901 891 l 972 887 q 817 969 916 935 q 583 996 718 1004 l 583 996 m 957 525 l 957 447 l 957 338 l 957 146 l 957 88 l 957 0 l 1006 0 l 1006 132 l 1006 338 l 1006 525 l 957 525 l 957 525 "},"H":{"ha":990,"x_min":120,"x_max":870,"o":"m 169 519 l 169 582 l 169 989 l 120 989 l 120 582 l 120 469 l 120 0 l 169 0 l 169 469 l 821 469 l 821 0 l 870 0 l 870 519 l 169 519 l 169 519 "},"I":{"ha":288,"x_min":120,"x_max":168,"o":"m 120 989 l 168 989 l 168 0 l 120 0 l 120 989 l 120 989 "},"J":{"ha":473,"x_min":120,"x_max":353,"o":"m 303 989 q 303 886 303 980 q 303 661 303 791 q 303 417 303 530 q 303 264 303 303 q 258 104 303 166 q 120 38 212 42 l 120 -10 q 294 66 235 -8 q 353 262 353 139 q 353 437 353 321 q 353 680 353 552 q 353 898 353 808 q 353 989 353 989 l 303 989 l 303 989 "},"K":{"ha":771,"x_min":120,"x_max":651,"o":"m 651 0 l 189 496 l 611 989 l 543 989 l 120 495 l 121 495 l 120 495 l 120 0 l 169 0 l 169 442 l 581 0 l 651 0 l 651 0 "},"L":{"ha":834,"x_min":120,"x_max":714,"o":"m 169 49 l 169 989 l 120 989 l 120 49 l 120 0 l 169 0 l 714 0 l 714 49 l 169 49 l 169 49 "},"M":{"ha":1209,"x_min":120,"x_max":1089,"o":"m 1078 999 l 606 340 l 133 999 l 120 999 l 120 0 l 169 0 l 169 859 l 600 261 l 611 261 l 1089 928 l 1089 999 l 1078 999 l 1078 999 "},"N":{"ha":993,"x_min":120,"x_max":873,"o":"m 131 999 l 120 999 l 120 0 l 169 0 l 169 869 l 861 -10 l 873 -10 l 873 56 l 131 999 l 131 999 "},"O":{"ha":1199,"x_min":120,"x_max":1079,"o":"m 600 996 l 600 947 q 821 885 725 945 q 971 721 917 824 q 1026 492 1026 618 q 971 264 1026 367 q 820 99 917 161 q 599 37 724 37 q 379 99 475 37 q 228 264 283 161 q 174 492 174 367 q 174 493 174 492 q 174 493 174 493 l 120 493 q 120 493 120 493 q 120 492 120 492 q 183 239 120 353 q 353 57 245 125 q 599 -11 461 -11 q 846 57 738 -11 q 1017 239 955 125 q 1079 492 1079 353 q 1017 746 1079 631 q 847 927 955 860 q 600 996 739 994 l 600 996 "},"P":{"ha":917,"x_min":120,"x_max":797,"o":"m 797 687 q 754 528 797 596 q 639 422 712 460 q 473 384 566 384 l 168 384 l 168 0 l 120 0 l 120 434 l 473 434 q 609 464 548 434 q 707 551 670 495 q 743 687 743 608 q 708 823 743 766 q 611 910 672 880 q 473 941 550 941 l 120 941 l 120 989 l 473 989 q 637 951 563 989 q 753 845 710 913 q 797 687 797 777 l 797 687 "},"Q":{"ha":1199,"x_min":120,"x_max":1079,"o":"m 600 997 q 353 929 462 997 q 183 747 245 861 q 120 494 120 633 q 120 494 120 494 q 120 493 120 494 l 174 493 q 174 494 174 494 q 174 494 174 494 q 228 723 174 620 q 379 888 283 826 q 600 949 476 949 q 822 888 725 949 q 973 723 918 826 q 1027 494 1027 620 q 973 266 1027 369 q 822 101 918 163 q 600 39 725 39 q 576 40 588 39 l 576 -9 l 576 -45 l 576 -212 l 624 -212 l 624 -9 q 861 68 758 -1 q 1021 248 963 136 q 1079 494 1079 360 q 1017 747 1079 633 q 847 929 955 861 q 600 997 739 997 l 600 997 "},"R":{"ha":937,"x_min":120,"x_max":817,"o":"m 817 0 l 589 403 q 740 506 683 432 q 797 687 797 581 q 753 845 797 777 q 637 951 710 913 q 473 989 563 989 l 120 989 l 120 939 l 473 939 q 612 909 550 939 q 709 822 673 879 q 745 687 745 766 q 714 562 745 616 q 632 477 683 508 q 515 436 580 445 l 760 0 l 817 0 l 817 0 "},"S":{"ha":945,"x_min":120,"x_max":825,"o":"m 476 526 q 361 555 417 539 q 263 593 306 571 q 194 649 220 616 q 168 731 168 682 q 245 891 168 830 q 442 952 321 952 q 473 952 458 952 l 473 1000 q 442 1002 458 1002 q 278 968 351 1002 q 162 873 204 934 q 120 731 120 812 q 207 572 120 632 q 465 478 293 513 q 581 448 526 465 q 681 409 637 432 q 750 350 725 385 q 775 264 775 315 q 750 164 775 206 q 683 94 725 121 q 587 54 641 67 q 478 41 534 41 q 473 41 476 41 l 473 40 l 473 -8 q 478 -8 475 -8 q 647 19 580 -8 q 753 88 714 46 q 809 177 793 130 q 825 264 825 224 q 810 344 825 307 q 758 413 795 381 q 651 473 720 445 q 476 526 583 502 l 476 526 "},"T":{"ha":955,"x_min":120,"x_max":835,"o":"m 835 989 l 835 939 l 120 939 l 120 989 l 835 989 l 835 989 m 454 633 l 502 633 l 502 0 l 454 0 l 454 633 l 454 633 "},"U":{"ha":965,"x_min":120,"x_max":845,"o":"m 795 989 l 795 452 l 795 400 q 713 135 795 230 q 482 38 630 40 q 252 135 335 40 q 169 400 169 230 l 169 615 l 169 708 l 169 839 l 169 893 l 169 989 l 120 989 l 120 893 l 120 839 l 120 708 l 120 615 l 120 400 q 214 102 120 210 q 482 -10 309 -7 q 750 102 656 -7 q 845 400 845 210 l 845 452 l 845 989 l 795 989 l 795 989 "},"V":{"ha":1040,"x_min":120,"x_max":920,"o":"m 172 989 l 361 495 l 309 495 l 120 989 l 172 989 l 172 989 m 920 989 l 543 0 l 498 0 l 493 11 l 867 989 l 920 989 l 920 989 "},"W":{"ha":1181,"x_min":120,"x_max":1061,"o":"m 1009 989 l 642 79 l 421 586 l 595 989 l 542 989 l 394 648 l 367 586 l 120 14 l 126 0 l 169 0 l 394 524 l 619 0 l 662 0 l 1061 989 l 1009 989 l 1009 989 "},"X":{"ha":1018,"x_min":120,"x_max":898,"o":"m 307 265 l 367 265 l 181 0 l 120 0 l 307 265 l 307 265 m 307 724 l 367 724 l 181 989 l 120 989 l 307 724 l 307 724 m 898 0 l 838 0 l 479 508 l 819 989 l 880 989 l 539 508 l 898 0 l 898 0 "},"Y":{"ha":658,"x_min":120,"x_max":538,"o":"m 482 989 l 120 343 l 120 0 l 168 0 l 168 328 l 538 989 l 482 989 l 482 989 "},"Z":{"ha":993,"x_min":120,"x_max":873,"o":"m 873 49 l 873 0 l 120 0 l 120 49 l 807 989 l 869 989 l 183 49 l 873 49 l 873 49 "},"[":{"ha":514,"x_min":120,"x_max":394,"o":"m 169 1089 l 169 -91 l 394 -91 l 394 -140 l 120 -140 l 120 1138 l 394 1138 l 394 1089 l 169 1089 l 169 1089 "},"\\":{"ha":716,"x_min":120,"x_max":596,"o":"m 120 1132 l 120 1132 l 172 1132 l 596 -146 l 544 -146 l 120 1132 "},"]":{"ha":514,"x_min":120,"x_max":394,"o":"m 344 1089 l 344 1089 l 120 1089 l 120 1138 l 394 1138 l 394 -140 l 120 -140 l 120 -91 l 344 -91 l 344 1089 "},"^":{"ha":611,"x_min":120,"x_max":491,"o":"m 436 819 l 305 1006 l 175 819 l 120 819 l 277 1061 l 333 1061 l 491 819 l 436 819 l 436 819 "},"_":{"ha":861,"x_min":120,"x_max":741,"o":"m 741 47 l 741 -2 l 120 -2 l 120 47 l 741 47 l 741 47 "},"`":{"ha":367,"x_min":120,"x_max":247,"o":"m 120 983 l 120 983 l 183 983 l 247 746 l 219 746 l 120 983 "},"a":{"ha":777,"x_min":120,"x_max":657,"o":"m 419 691 q 305 673 352 691 q 228 627 258 655 q 180 564 198 598 q 155 499 163 530 l 203 488 q 241 567 214 532 q 312 622 268 602 q 419 643 356 643 q 528 620 487 643 q 588 558 570 596 q 607 473 607 519 q 582 430 607 446 q 515 402 557 413 q 426 382 474 391 q 371 371 399 377 q 247 331 304 355 q 155 266 191 307 q 120 159 120 225 q 140 77 120 110 q 190 26 159 45 q 259 -1 222 7 q 331 -10 296 -10 q 356 -9 344 -10 l 356 39 q 338 38 347 38 q 255 51 292 38 q 195 91 218 65 q 172 159 172 117 q 220 260 172 222 q 383 323 267 299 q 529 355 467 340 q 609 375 572 366 q 609 363 609 374 q 609 337 609 353 q 609 305 609 321 q 609 284 609 294 l 609 140 l 609 0 l 657 0 q 657 79 657 7 q 657 255 657 151 q 657 454 657 359 q 634 570 657 524 q 576 643 611 616 q 499 680 540 670 q 419 691 457 691 l 419 691 "},"b":{"ha":877,"x_min":120,"x_max":757,"o":"m 439 691 q 276 646 344 691 q 169 524 207 600 l 169 990 l 120 990 l 120 0 l 169 0 l 169 157 l 174 341 q 206 493 174 424 q 297 602 237 561 q 439 643 356 643 q 582 602 523 643 q 673 493 642 561 q 705 341 705 424 q 673 189 705 257 q 582 79 642 120 q 439 38 523 38 q 439 38 439 38 q 438 38 439 38 l 438 -10 q 439 -10 439 -10 q 439 -10 439 -10 q 607 38 536 -10 q 718 165 679 85 q 757 341 757 244 q 718 517 757 438 q 607 644 679 596 q 439 691 536 691 l 439 691 "},"c":{"ha":845,"x_min":120,"x_max":725,"o":"m 678 173 l 725 150 q 610 33 682 76 q 447 -11 539 -11 q 276 36 350 -11 q 161 163 202 84 q 120 340 120 243 q 161 516 120 436 q 276 642 202 595 q 447 690 350 690 q 610 646 539 690 q 725 528 682 602 l 678 508 q 584 605 643 569 q 447 642 525 642 q 302 601 363 642 q 206 491 240 560 q 172 340 172 423 q 206 187 172 256 q 302 78 240 119 q 447 37 363 37 q 584 74 525 37 q 678 173 643 110 l 678 173 "},"d":{"ha":877,"x_min":120,"x_max":757,"o":"m 438 691 l 438 691 q 270 644 341 691 q 159 517 198 596 q 120 341 120 438 q 159 165 120 244 q 270 38 198 85 q 438 -10 341 -10 q 438 -10 438 -10 q 438 -10 438 -10 l 438 38 q 438 38 438 38 q 438 38 438 38 q 295 79 355 38 q 204 189 235 120 q 172 341 172 257 q 204 493 172 424 q 295 602 235 561 q 438 643 355 643 q 581 602 522 643 q 672 493 640 561 q 703 341 703 424 l 707 157 l 707 0 l 757 0 l 757 990 l 707 990 l 707 524 q 602 646 670 600 q 438 691 533 691 "},"e":{"ha":869,"x_min":120,"x_max":749,"o":"m 448 38 q 434 38 441 38 l 434 -10 q 434 -10 434 -10 q 448 -10 441 -10 q 611 33 540 -10 q 725 151 683 77 l 679 174 q 585 74 644 111 q 448 38 526 38 l 448 38 m 448 690 q 277 643 351 690 q 162 516 203 596 q 120 340 120 437 q 121 303 120 321 l 175 303 l 434 303 l 747 303 q 749 340 749 321 q 714 516 749 437 q 612 643 679 596 q 448 690 545 690 l 448 690 m 174 353 q 211 500 177 434 q 306 604 246 565 q 448 642 366 642 q 583 604 529 642 q 665 500 637 565 q 695 353 693 434 l 174 353 l 174 353 "},"f":{"ha":619,"x_min":120,"x_max":499,"o":"m 222 304 l 222 0 l 271 0 l 271 304 l 222 304 l 222 304 m 371 948 q 427 937 400 948 q 472 911 454 926 l 499 952 q 440 983 473 970 q 371 997 406 997 q 283 973 316 997 q 236 905 250 949 q 222 801 222 861 l 222 681 l 120 681 l 120 631 l 189 631 l 222 631 l 271 631 l 321 631 l 436 631 l 436 681 l 271 681 l 271 810 q 281 880 271 848 q 312 929 290 911 q 371 948 334 948 l 371 948 "},"g":{"ha":901,"x_min":120,"x_max":781,"o":"m 781 675 l 781 731 q 683 703 728 731 q 606 629 638 675 q 521 675 568 659 q 423 690 473 690 l 423 641 q 525 621 477 641 q 602 559 572 600 q 631 452 631 517 q 602 346 631 387 q 525 284 572 304 q 423 264 477 264 q 320 284 368 264 q 243 346 272 304 q 213 452 213 387 q 213 452 213 452 q 213 452 213 452 l 160 452 q 160 452 160 452 q 160 452 160 452 q 179 354 160 397 q 233 281 199 311 q 309 235 267 252 q 271 179 283 210 q 263 124 259 149 q 320 63 272 79 q 449 46 369 48 q 573 35 517 45 q 662 -2 628 25 q 695 -80 695 -28 q 658 -166 695 -131 q 559 -218 620 -202 q 424 -231 498 -235 q 259 -195 326 -224 q 151 -128 192 -165 l 120 -163 q 223 -232 150 -194 q 424 -279 296 -270 q 665 -224 581 -283 q 749 -75 749 -165 q 712 26 749 -11 q 609 79 676 62 q 451 95 542 95 q 350 105 380 96 q 314 134 319 113 q 318 173 309 148 q 355 222 327 197 q 423 214 388 214 q 550 241 489 214 q 647 321 610 268 q 685 452 685 374 q 671 534 685 498 q 635 598 658 570 q 669 633 648 616 q 718 663 690 651 q 781 675 746 675 l 781 675 "},"h":{"ha":778,"x_min":120,"x_max":658,"o":"m 389 691 q 256 648 311 688 q 169 543 200 607 l 169 989 l 120 989 l 120 0 l 169 0 l 169 370 q 198 512 169 452 q 277 607 227 573 q 389 643 326 641 l 389 691 l 389 691 m 608 410 q 609 387 609 399 l 609 0 l 658 0 q 658 65 658 5 q 658 213 658 125 q 658 387 658 302 q 658 410 658 399 l 608 410 l 608 410 "},"i":{"ha":318,"x_min":120,"x_max":198,"o":"m 198 850 q 186 823 198 834 q 159 811 175 811 q 131 823 142 811 q 120 850 120 834 q 131 878 120 867 q 159 890 142 890 q 186 878 175 890 q 198 850 198 867 l 198 850 m 134 681 l 184 681 l 184 0 l 134 0 l 134 681 l 134 681 "},"j":{"ha":408,"x_min":120,"x_max":288,"o":"m 248 891 q 221 879 233 891 q 209 851 209 867 q 221 823 209 835 q 248 812 233 812 q 276 823 264 812 q 288 851 288 835 q 276 879 288 867 q 248 891 264 891 l 248 891 m 223 -125 q 197 -228 223 -191 q 120 -268 171 -266 l 120 -317 q 207 -289 173 -316 q 256 -219 240 -262 q 271 -125 271 -176 l 271 681 l 223 681 l 223 -125 l 223 -125 "},"k":{"ha":719,"x_min":120,"x_max":599,"o":"m 599 0 l 305 352 l 554 681 l 493 681 l 242 350 l 535 0 l 599 0 l 599 0 m 120 989 l 120 0 l 169 0 l 169 989 l 120 989 l 120 989 "},"l":{"ha":290,"x_min":120,"x_max":169,"o":"m 120 989 l 120 0 l 169 0 l 169 989 l 120 989 l 120 989 "},"m":{"ha":1209,"x_min":120,"x_max":1089,"o":"m 827 690 q 693 639 747 684 q 611 524 639 594 q 532 647 587 603 q 384 691 476 691 q 253 651 307 691 q 169 548 199 611 l 169 681 l 120 681 l 120 0 l 169 0 l 169 370 q 225 568 169 493 q 377 643 281 643 q 491 610 447 643 q 558 519 536 576 q 579 387 579 461 l 579 0 l 629 0 l 629 370 q 681 564 629 490 q 827 642 734 637 l 827 690 l 827 690 m 1040 397 q 1040 387 1040 393 l 1040 0 l 1089 0 q 1089 65 1089 5 q 1089 213 1089 125 q 1089 387 1089 302 q 1089 395 1089 391 q 1089 397 1089 396 l 1040 397 l 1040 397 "},"n":{"ha":777,"x_min":120,"x_max":657,"o":"m 388 691 q 255 648 311 688 q 168 543 200 607 l 168 681 l 120 681 l 120 0 l 168 0 l 168 370 q 230 566 168 492 q 388 643 292 640 l 388 691 l 388 691 m 607 397 q 607 387 607 393 l 607 0 l 657 0 q 657 65 657 5 q 657 213 657 125 q 657 387 657 302 q 657 395 657 391 q 657 397 657 396 l 607 397 l 607 397 "},"o":{"ha":894,"x_min":120,"x_max":774,"o":"m 448 690 q 447 690 447 690 q 447 690 447 690 l 447 642 q 447 642 447 642 q 448 642 447 642 q 593 601 531 642 q 687 491 654 560 q 721 340 721 423 q 687 187 721 256 q 593 78 654 119 q 448 37 531 37 q 303 78 364 37 q 208 187 242 119 q 174 340 174 256 l 120 340 q 162 163 120 243 q 277 36 203 84 q 448 -11 351 -11 q 618 36 545 -11 q 733 163 692 84 q 774 340 774 243 q 733 516 774 436 q 618 642 692 595 q 448 690 545 690 l 448 690 "},"p":{"ha":877,"x_min":120,"x_max":757,"o":"m 439 -12 q 276 33 344 -12 q 169 154 207 78 l 169 -310 l 120 -310 l 120 679 l 169 679 l 169 522 l 174 338 q 206 186 174 255 q 297 77 237 117 q 439 36 356 36 q 582 77 523 36 q 673 186 642 117 q 705 338 705 255 q 673 490 705 421 q 582 600 642 559 q 439 641 523 641 q 439 641 439 641 q 438 641 439 641 l 438 688 q 439 689 439 688 q 439 689 439 689 q 607 642 536 689 q 718 515 679 594 q 757 338 757 435 q 718 162 757 242 q 607 35 679 82 q 439 -12 536 -12 l 439 -12 "},"q":{"ha":877,"x_min":120,"x_max":757,"o":"m 438 -12 l 438 -12 q 270 35 341 -12 q 159 162 198 82 q 120 338 120 242 q 159 515 120 435 q 270 642 198 594 q 438 689 341 689 q 438 689 438 689 q 438 688 438 688 l 438 641 q 438 641 438 641 q 438 641 438 641 q 295 600 355 641 q 204 490 235 559 q 172 338 172 421 q 204 186 172 255 q 295 77 235 117 q 438 36 355 36 q 581 77 522 36 q 672 186 640 117 q 703 338 703 255 l 707 522 l 707 679 l 757 679 l 757 -310 l 707 -310 l 707 154 q 602 33 670 78 q 438 -12 533 -12 "},"r":{"ha":551,"x_min":120,"x_max":431,"o":"m 431 691 l 423 642 q 401 643 412 643 q 284 609 337 643 q 201 514 232 575 q 169 370 169 453 l 169 0 l 120 0 l 120 681 l 169 681 l 169 538 q 224 617 191 583 q 302 672 258 652 q 401 692 347 692 q 416 692 408 692 q 431 691 423 691 l 431 691 "},"s":{"ha":721,"x_min":120,"x_max":601,"o":"m 364 364 q 236 412 289 382 q 176 494 184 441 q 189 567 172 534 q 246 620 207 600 q 347 641 285 641 q 351 641 349 641 q 353 641 351 641 l 353 690 q 350 690 351 690 q 347 690 349 690 q 220 662 271 690 q 144 588 168 633 q 126 489 120 542 q 203 373 139 411 q 352 316 267 336 q 457 283 412 301 q 527 241 502 266 q 552 178 552 216 q 526 97 552 128 q 459 50 500 65 q 372 35 418 35 q 353 36 362 35 l 353 -12 q 353 -12 353 -12 q 372 -13 362 -13 q 484 8 432 -13 q 569 72 537 30 q 601 178 601 114 q 580 254 601 223 q 524 305 559 284 q 448 339 489 325 q 364 364 406 353 l 364 364 "},"t":{"ha":563,"x_min":120,"x_max":443,"o":"m 224 305 l 224 187 l 224 0 l 274 0 l 274 25 l 274 178 l 274 305 l 224 305 l 224 305 m 274 681 l 274 880 l 224 866 l 224 681 l 120 681 l 120 631 l 183 631 l 224 631 l 274 631 l 323 631 l 443 631 l 443 681 l 274 681 l 274 681 "},"u":{"ha":764,"x_min":120,"x_max":644,"o":"m 644 337 q 644 517 644 433 q 644 616 644 574 q 644 683 644 683 l 596 683 l 596 337 l 644 337 l 644 337 m 382 41 q 223 116 278 45 q 168 297 168 187 l 168 683 l 120 683 q 120 618 120 678 q 120 470 120 558 q 120 297 120 382 q 188 77 120 159 q 382 -8 256 -5 l 382 41 l 382 41 "},"v":{"ha":807,"x_min":120,"x_max":687,"o":"m 301 340 l 172 681 l 120 681 l 248 340 l 301 340 l 301 340 m 687 681 l 634 681 l 378 0 l 430 0 l 687 681 l 687 681 "},"w":{"ha":953,"x_min":120,"x_max":833,"o":"m 781 681 l 586 80 l 388 681 l 344 681 l 120 0 l 168 0 l 367 602 l 565 0 l 613 0 l 833 681 l 781 681 l 781 681 "},"x":{"ha":795,"x_min":120,"x_max":675,"o":"m 428 351 l 397 394 l 195 681 l 134 681 l 367 351 l 120 0 l 181 0 l 397 308 l 615 0 l 675 0 l 428 351 l 428 351 "},"y":{"ha":807,"x_min":120,"x_max":687,"o":"m 301 342 l 172 683 l 120 683 l 248 342 l 301 342 l 301 342 m 634 683 l 404 71 l 377 2 q 278 -188 325 -139 q 147 -217 232 -237 l 139 -265 q 142 -266 140 -266 q 229 -271 182 -276 q 323 -213 275 -266 q 377 -128 354 -178 q 430 2 400 -78 l 687 683 l 634 683 l 634 683 "},"z":{"ha":766,"x_min":120,"x_max":646,"o":"m 633 631 l 633 681 l 609 681 l 120 49 l 120 0 l 646 0 l 646 49 l 183 49 l 633 631 l 633 631 "},"{":{"ha":578,"x_min":120,"x_max":458,"o":"m 188 493 q 250 391 231 471 q 268 144 268 312 q 287 -4 268 47 q 348 -74 306 -56 q 458 -93 389 -93 l 458 -143 q 356 -133 401 -143 q 281 -93 312 -123 q 235 -7 250 -64 q 219 144 219 49 q 213 341 219 270 q 186 441 207 412 q 120 470 165 470 l 120 515 q 186 545 165 515 q 213 645 207 574 q 219 841 219 716 q 235 992 219 935 q 281 1078 250 1049 q 356 1117 312 1108 q 458 1127 401 1127 l 458 1078 q 348 1059 389 1078 q 287 989 306 1040 q 268 841 268 938 q 250 593 268 672 q 188 493 231 514 l 188 493 "},"|":{"ha":290,"x_min":120,"x_max":169,"o":"m 120 1121 l 120 -138 l 169 -138 l 169 1121 l 120 1121 l 120 1121 "},"}":{"ha":578,"x_min":120,"x_max":458,"o":"m 390 493 l 390 493 q 328 593 347 514 q 309 841 309 672 q 291 989 309 938 q 230 1059 272 1040 q 120 1078 189 1078 l 120 1127 q 222 1117 177 1127 q 297 1078 266 1108 q 343 992 327 1049 q 359 841 359 935 q 365 645 359 716 q 392 545 371 574 q 458 515 413 515 l 458 470 q 392 441 413 470 q 365 341 371 412 q 359 144 359 270 q 343 -7 359 49 q 297 -93 327 -64 q 222 -133 266 -123 q 120 -143 177 -143 l 120 -93 q 230 -74 189 -93 q 291 -4 272 -56 q 309 144 309 47 q 328 391 309 312 q 390 493 347 471 "},"~":{"ha":1057,"x_min":0,"x_max":0,"o":""},"¡":{"ha":1057,"x_min":0,"x_max":0,"o":""},"¢":{"ha":1057,"x_min":0,"x_max":0,"o":""},"£":{"ha":1057,"x_min":0,"x_max":0,"o":""},"¤":{"ha":1057,"x_min":0,"x_max":0,"o":""},"¥":{"ha":1057,"x_min":0,"x_max":0,"o":""},"¦":{"ha":1057,"x_min":0,"x_max":0,"o":""},"§":{"ha":1057,"x_min":0,"x_max":0,"o":""},"¨":{"ha":1057,"x_min":0,"x_max":0,"o":""},"©":{"ha":1057,"x_min":0,"x_max":0,"o":""},"ª":{"ha":1057,"x_min":0,"x_max":0,"o":""},"«":{"ha":1057,"x_min":0,"x_max":0,"o":""},"¬":{"ha":1057,"x_min":0,"x_max":0,"o":""},"®":{"ha":1057,"x_min":0,"x_max":0,"o":""},"¯":{"ha":1057,"x_min":0,"x_max":0,"o":""},"°":{"ha":1057,"x_min":0,"x_max":0,"o":""},"±":{"ha":1057,"x_min":0,"x_max":0,"o":""},"²":{"ha":1057,"x_min":0,"x_max":0,"o":""},"³":{"ha":1057,"x_min":0,"x_max":0,"o":""},"´":{"ha":1057,"x_min":0,"x_max":0,"o":""},"µ":{"ha":1057,"x_min":0,"x_max":0,"o":""},"¶":{"ha":1057,"x_min":0,"x_max":0,"o":""},"·":{"ha":1057,"x_min":0,"x_max":0,"o":""},"∙":{"ha":1057,"x_min":0,"x_max":0,"o":""},"¸":{"ha":1057,"x_min":0,"x_max":0,"o":""},"¹":{"ha":1057,"x_min":0,"x_max":0,"o":""},"º":{"ha":1057,"x_min":0,"x_max":0,"o":""},"»":{"ha":1057,"x_min":0,"x_max":0,"o":""},"¼":{"ha":1057,"x_min":0,"x_max":0,"o":""},"½":{"ha":1057,"x_min":0,"x_max":0,"o":""},"¾":{"ha":1057,"x_min":0,"x_max":0,"o":""},"¿":{"ha":1057,"x_min":0,"x_max":0,"o":""},"À":{"ha":1057,"x_min":0,"x_max":0,"o":""},"Á":{"ha":1057,"x_min":0,"x_max":0,"o":""},"Â":{"ha":1057,"x_min":0,"x_max":0,"o":""},"Ã":{"ha":1057,"x_min":0,"x_max":0,"o":""},"Ä":{"ha":1049,"x_min":120,"x_max":928,"o":"m 928 0 l 876 0 l 524 911 l 172 0 l 120 0 l 502 989 l 547 989 l 928 0 l 928 0 m 463 1175 q 450 1143 463 1156 q 419 1130 437 1130 q 387 1143 399 1130 q 375 1175 375 1156 q 387 1206 375 1193 q 419 1219 399 1219 q 450 1206 437 1219 q 463 1175 463 1193 l 463 1175 m 674 1175 q 661 1143 674 1156 q 629 1130 648 1130 q 598 1143 611 1130 q 585 1175 585 1156 q 598 1206 585 1193 q 629 1219 611 1219 q 661 1206 648 1219 q 674 1175 674 1193 l 674 1175 "},"Å":{"ha":1057,"x_min":0,"x_max":0,"o":""},"Æ":{"ha":1057,"x_min":0,"x_max":0,"o":""},"Ç":{"ha":1057,"x_min":0,"x_max":0,"o":""},"È":{"ha":1057,"x_min":0,"x_max":0,"o":""},"É":{"ha":1057,"x_min":0,"x_max":0,"o":""},"Ê":{"ha":1057,"x_min":0,"x_max":0,"o":""},"Ë":{"ha":889,"x_min":120,"x_max":769,"o":"m 769 939 l 120 939 l 120 989 l 769 989 l 769 939 l 769 939 m 769 470 l 120 470 l 120 519 l 769 519 l 769 470 l 769 470 m 769 0 l 120 0 l 120 49 l 769 49 l 769 0 l 769 0 m 384 1175 q 371 1143 384 1156 q 339 1130 358 1130 q 307 1143 320 1130 q 295 1175 295 1156 q 307 1206 295 1193 q 339 1219 320 1219 q 371 1206 358 1219 q 384 1175 384 1193 l 384 1175 m 594 1175 q 581 1143 594 1156 q 550 1130 568 1130 q 518 1143 531 1130 q 506 1175 506 1156 q 518 1206 506 1193 q 550 1219 531 1219 q 581 1206 568 1219 q 594 1175 594 1193 l 594 1175 "},"Ì":{"ha":1057,"x_min":0,"x_max":0,"o":""},"Í":{"ha":1057,"x_min":0,"x_max":0,"o":""},"Î":{"ha":1057,"x_min":0,"x_max":0,"o":""},"Ï":{"ha":288,"x_min":-5,"x_max":294,"o":"m 120 989 l 168 989 l 168 0 l 120 0 l 120 989 l 120 989 m 83 1175 q 70 1143 83 1156 q 38 1130 57 1130 q 7 1143 19 1130 q -5 1175 -5 1156 q 7 1206 -5 1193 q 38 1219 19 1219 q 70 1206 57 1219 q 83 1175 83 1193 l 83 1175 m 294 1175 q 281 1143 294 1156 q 249 1130 268 1130 q 218 1143 231 1130 q 205 1175 205 1156 q 218 1206 205 1193 q 249 1219 231 1219 q 281 1206 268 1219 q 294 1175 294 1193 l 294 1175 "},"Ð":{"ha":1057,"x_min":0,"x_max":0,"o":""},"Ñ":{"ha":1057,"x_min":0,"x_max":0,"o":""},"Ò":{"ha":1057,"x_min":0,"x_max":0,"o":""},"Ó":{"ha":1057,"x_min":0,"x_max":0,"o":""},"Ô":{"ha":1057,"x_min":0,"x_max":0,"o":""},"Õ":{"ha":1057,"x_min":0,"x_max":0,"o":""},"Ö":{"ha":1199,"x_min":120,"x_max":1079,"o":"m 600 996 l 600 947 q 821 885 725 945 q 971 721 917 824 q 1026 492 1026 618 q 971 264 1026 367 q 820 99 917 161 q 599 37 724 37 q 379 99 475 37 q 228 264 283 161 q 174 492 174 367 q 174 493 174 492 q 174 493 174 493 l 120 493 q 120 493 120 493 q 120 492 120 492 q 183 239 120 353 q 353 57 245 125 q 599 -11 461 -11 q 846 57 738 -11 q 1017 239 955 125 q 1079 492 1079 353 q 1017 746 1079 631 q 847 927 955 860 q 600 996 739 994 l 600 996 m 589 1175 q 576 1143 589 1156 q 545 1130 563 1130 q 513 1143 526 1130 q 501 1175 501 1156 q 513 1206 501 1193 q 545 1219 526 1219 q 576 1206 563 1219 q 589 1175 589 1193 l 589 1175 m 800 1175 q 787 1143 800 1156 q 756 1130 774 1130 q 724 1143 737 1130 q 712 1175 712 1156 q 724 1206 712 1193 q 756 1219 737 1219 q 787 1206 774 1219 q 800 1175 800 1193 l 800 1175 "},"×":{"ha":1057,"x_min":0,"x_max":0,"o":""},"Ø":{"ha":1057,"x_min":0,"x_max":0,"o":""},"Ù":{"ha":1057,"x_min":0,"x_max":0,"o":""},"Ú":{"ha":1057,"x_min":0,"x_max":0,"o":""},"Û":{"ha":1057,"x_min":0,"x_max":0,"o":""},"Ü":{"ha":965,"x_min":120,"x_max":845,"o":"m 795 989 l 795 452 l 795 400 q 713 135 795 230 q 482 38 630 40 q 252 135 335 40 q 169 400 169 230 l 169 615 l 169 708 l 169 839 l 169 893 l 169 989 l 120 989 l 120 893 l 120 839 l 120 708 l 120 615 l 120 400 q 214 102 120 210 q 482 -10 309 -7 q 750 102 656 -7 q 845 400 845 210 l 845 452 l 845 989 l 795 989 l 795 989 m 421 1175 q 408 1143 421 1156 q 377 1130 395 1130 q 345 1143 358 1130 q 333 1175 333 1156 q 345 1206 333 1193 q 377 1219 358 1219 q 408 1206 395 1219 q 421 1175 421 1193 l 421 1175 m 632 1175 q 619 1143 632 1156 q 587 1130 606 1130 q 556 1143 569 1130 q 543 1175 543 1156 q 556 1206 543 1193 q 587 1219 569 1219 q 619 1206 606 1219 q 632 1175 632 1193 l 632 1175 "},"Ý":{"ha":1057,"x_min":0,"x_max":0,"o":""},"Þ":{"ha":1057,"x_min":0,"x_max":0,"o":""},"ß":{"ha":922,"x_min":120,"x_max":801,"o":"m 775 399 q 704 485 749 452 q 601 532 659 519 q 708 613 668 559 q 748 746 748 668 q 713 874 748 820 q 618 959 679 929 q 480 989 558 989 l 461 989 l 406 989 l 388 989 q 250 959 310 989 q 154 874 189 929 q 120 752 121 822 l 120 -62 l 174 -62 l 174 752 q 232 891 176 843 q 388 941 291 941 l 406 941 l 461 941 l 480 941 q 635 891 577 941 q 694 746 694 841 q 666 639 694 682 q 589 573 638 596 q 480 551 541 551 l 325 551 l 325 503 l 504 503 q 626 478 570 503 q 716 403 682 454 q 749 274 749 352 q 715 146 749 196 q 624 73 681 97 q 504 49 568 49 l 325 49 l 325 0 l 504 0 q 652 30 584 0 q 760 121 720 60 q 801 274 801 182 q 775 399 801 347 l 775 399 "},"à":{"ha":1057,"x_min":0,"x_max":0,"o":""},"á":{"ha":1057,"x_min":0,"x_max":0,"o":""},"â":{"ha":1057,"x_min":0,"x_max":0,"o":""},"ã":{"ha":1057,"x_min":0,"x_max":0,"o":""},"ä":{"ha":777,"x_min":120,"x_max":657,"o":"m 419 691 q 305 673 352 691 q 228 627 258 655 q 180 564 198 598 q 155 499 163 530 l 203 488 q 241 567 214 532 q 312 622 268 602 q 419 643 356 643 q 528 620 487 643 q 588 558 570 596 q 607 473 607 519 q 582 430 607 446 q 515 402 557 413 q 426 382 474 391 q 371 371 399 377 q 247 331 304 355 q 155 266 191 307 q 120 159 120 225 q 140 77 120 110 q 190 26 159 45 q 259 -1 222 7 q 331 -10 296 -10 q 356 -9 344 -10 l 356 39 q 338 38 347 38 q 255 51 292 38 q 195 91 218 65 q 172 159 172 117 q 220 260 172 222 q 383 323 267 299 q 529 355 467 340 q 609 375 572 366 q 609 363 609 374 q 609 337 609 353 q 609 305 609 321 q 609 284 609 294 l 609 140 l 609 0 l 657 0 q 657 79 657 7 q 657 255 657 151 q 657 454 657 359 q 634 570 657 524 q 576 643 611 616 q 499 680 540 670 q 419 691 457 691 l 419 691 m 352 867 q 339 835 352 848 q 307 821 326 821 q 276 835 288 821 q 264 867 264 848 q 276 898 264 885 q 307 911 288 911 q 339 898 326 911 q 352 867 352 885 l 352 867 m 563 867 q 550 835 563 848 q 518 821 537 821 q 487 835 500 821 q 474 867 474 848 q 487 898 474 885 q 518 911 500 911 q 550 898 537 911 q 563 867 563 885 l 563 867 "},"å":{"ha":1057,"x_min":0,"x_max":0,"o":""},"æ":{"ha":1057,"x_min":0,"x_max":0,"o":""},"ç":{"ha":1057,"x_min":0,"x_max":0,"o":""},"è":{"ha":1057,"x_min":0,"x_max":0,"o":""},"é":{"ha":1057,"x_min":0,"x_max":0,"o":""},"ê":{"ha":1057,"x_min":0,"x_max":0,"o":""},"ë":{"ha":869,"x_min":120,"x_max":749,"o":"m 448 38 q 434 38 441 38 l 434 -10 q 434 -10 434 -10 q 448 -10 441 -10 q 611 33 540 -10 q 725 151 683 77 l 679 174 q 585 74 644 111 q 448 38 526 38 l 448 38 m 448 690 q 277 643 351 690 q 162 516 203 596 q 120 340 120 437 q 121 303 120 321 l 175 303 l 434 303 l 747 303 q 749 340 749 321 q 714 516 749 437 q 612 643 679 596 q 448 690 545 690 l 448 690 m 174 353 q 211 500 177 434 q 306 604 246 565 q 448 642 366 642 q 583 604 529 642 q 665 500 637 565 q 695 353 693 434 l 174 353 l 174 353 m 386 867 q 373 835 386 848 q 342 821 360 821 q 310 835 323 821 q 298 867 298 848 q 310 898 298 885 q 342 911 323 911 q 373 898 360 911 q 386 867 386 885 l 386 867 m 597 867 q 584 835 597 848 q 552 821 571 821 q 521 835 534 821 q 508 867 508 848 q 521 898 508 885 q 552 911 534 911 q 584 898 571 911 q 597 867 597 885 l 597 867 "},"ì":{"ha":1057,"x_min":0,"x_max":0,"o":""},"í":{"ha":1057,"x_min":0,"x_max":0,"o":""},"î":{"ha":1057,"x_min":0,"x_max":0,"o":""},"ï":{"ha":290,"x_min":10,"x_max":309,"o":"m 120 681 l 169 681 l 169 0 l 120 0 l 120 681 l 120 681 m 98 867 q 85 835 98 848 q 54 821 72 821 q 22 835 34 821 q 10 867 10 848 q 22 898 10 885 q 54 911 34 911 q 85 898 72 911 q 98 867 98 885 l 98 867 m 309 867 q 296 835 309 848 q 264 821 283 821 q 233 835 246 821 q 220 867 220 848 q 233 898 220 885 q 264 911 246 911 q 296 898 283 911 q 309 867 309 885 l 309 867 "},"ð":{"ha":1057,"x_min":0,"x_max":0,"o":""},"ñ":{"ha":1057,"x_min":0,"x_max":0,"o":""},"ò":{"ha":1057,"x_min":0,"x_max":0,"o":""},"ó":{"ha":1057,"x_min":0,"x_max":0,"o":""},"ô":{"ha":1057,"x_min":0,"x_max":0,"o":""},"õ":{"ha":1057,"x_min":0,"x_max":0,"o":""},"ö":{"ha":894,"x_min":120,"x_max":774,"o":"m 448 690 q 447 690 447 690 q 447 690 447 690 l 447 642 q 447 642 447 642 q 448 642 447 642 q 593 601 531 642 q 687 491 654 560 q 721 340 721 423 q 687 187 721 256 q 593 78 654 119 q 448 37 531 37 q 303 78 364 37 q 208 187 242 119 q 174 340 174 256 l 120 340 q 162 163 120 243 q 277 36 203 84 q 448 -11 351 -11 q 618 36 545 -11 q 733 163 692 84 q 774 340 774 243 q 733 516 774 436 q 618 642 692 595 q 448 690 545 690 l 448 690 m 386 867 q 373 835 386 848 q 342 821 360 821 q 310 835 323 821 q 298 867 298 848 q 310 898 298 885 q 342 911 323 911 q 373 898 360 911 q 386 867 386 885 l 386 867 m 597 867 q 584 835 597 848 q 552 821 571 821 q 521 835 534 821 q 508 867 508 848 q 521 898 508 885 q 552 911 534 911 q 584 898 571 911 q 597 867 597 885 l 597 867 "},"÷":{"ha":1057,"x_min":0,"x_max":0,"o":""},"ø":{"ha":1057,"x_min":0,"x_max":0,"o":""},"ù":{"ha":1057,"x_min":0,"x_max":0,"o":""},"ú":{"ha":1057,"x_min":0,"x_max":0,"o":""},"û":{"ha":1057,"x_min":0,"x_max":0,"o":""},"ü":{"ha":764,"x_min":120,"x_max":644,"o":"m 644 337 q 644 517 644 433 q 644 616 644 574 q 644 683 644 683 l 596 683 l 596 337 l 644 337 l 644 337 m 382 41 q 223 116 278 45 q 168 297 168 187 l 168 683 l 120 683 q 120 618 120 678 q 120 470 120 558 q 120 297 120 382 q 188 77 120 159 q 382 -8 256 -5 l 382 41 l 382 41 m 321 867 q 308 835 321 848 q 277 821 295 821 q 245 835 257 821 q 233 867 233 848 q 245 898 233 885 q 277 911 257 911 q 308 898 295 911 q 321 867 321 885 l 321 867 m 532 867 q 519 835 532 848 q 487 821 506 821 q 456 835 469 821 q 443 867 443 848 q 456 898 443 885 q 487 911 469 911 q 519 898 506 911 q 532 867 532 885 l 532 867 "},"ý":{"ha":1057,"x_min":0,"x_max":0,"o":""},"þ":{"ha":1057,"x_min":0,"x_max":0,"o":""},"ÿ":{"ha":807,"x_min":120,"x_max":687,"o":"m 301 342 l 172 683 l 120 683 l 248 342 l 301 342 l 301 342 m 634 683 l 404 71 l 377 2 q 278 -188 325 -139 q 147 -217 232 -237 l 139 -265 q 142 -266 140 -266 q 229 -271 182 -276 q 323 -213 275 -266 q 377 -128 354 -178 q 430 2 400 -78 l 687 683 l 634 683 l 634 683 m 342 867 q 329 835 342 848 q 298 821 316 821 q 266 835 279 821 q 254 867 254 848 q 266 898 254 885 q 298 911 279 911 q 329 898 316 911 q 342 867 342 885 l 342 867 m 553 867 q 540 835 553 848 q 508 821 527 821 q 477 835 490 821 q 465 867 465 848 q 477 898 465 885 q 508 911 490 911 q 540 898 527 911 q 553 867 553 885 l 553 867 "},"ı":{"ha":290,"x_min":120,"x_max":169,"o":"m 120 681 l 169 681 l 169 0 l 120 0 l 120 681 l 120 681 "},"̀":{"ha":1057,"x_min":0,"x_max":0,"o":""},"́":{"ha":1057,"x_min":0,"x_max":0,"o":""},"̂":{"ha":1057,"x_min":0,"x_max":0,"o":""},"̃":{"ha":1057,"x_min":0,"x_max":0,"o":""},"̄":{"ha":1057,"x_min":0,"x_max":0,"o":""},"̇":{"ha":1057,"x_min":0,"x_max":0,"o":""},"̈":{"ha":539,"x_min":120,"x_max":419,"o":"m 209 867 q 196 835 209 848 q 164 821 183 821 q 132 835 145 821 q 120 867 120 848 q 132 898 120 885 q 164 911 145 911 q 196 898 183 911 q 209 867 209 885 l 209 867 m 419 867 q 406 835 419 848 q 375 821 393 821 q 343 835 356 821 q 331 867 331 848 q 343 898 331 885 q 375 911 356 911 q 406 898 393 911 q 419 867 419 885 l 419 867 "},"̊":{"ha":1057,"x_min":0,"x_max":0,"o":""},"̌":{"ha":1057,"x_min":0,"x_max":0,"o":""},"̧":{"ha":1057,"x_min":0,"x_max":0,"o":""},"–":{"ha":843,"x_min":120,"x_max":723,"o":"m 723 518 l 723 469 l 120 469 l 120 518 l 723 518 l 723 518 "},"—":{"ha":1036,"x_min":120,"x_max":916,"o":"m 916 518 l 916 469 l 120 469 l 120 518 l 916 518 l 916 518 "},"‘":{"ha":367,"x_min":120,"x_max":247,"o":"m 247 983 l 148 746 l 120 746 l 185 983 l 247 983 l 247 983 "},"’":{"ha":367,"x_min":120,"x_max":247,"o":"m 247 983 l 148 746 l 120 746 l 185 983 l 247 983 l 247 983 "},"‚":{"ha":1057,"x_min":0,"x_max":0,"o":""},"“":{"ha":527,"x_min":120,"x_max":407,"o":"m 407 983 l 308 746 l 280 746 l 345 983 l 407 983 l 407 983 m 247 983 l 148 746 l 120 746 l 185 983 l 247 983 l 247 983 m 247 983 l 148 746 l 120 746 l 185 983 l 247 983 l 247 983 m 247 983 l 148 746 l 120 746 l 185 983 l 247 983 l 247 983 "},"”":{"ha":527,"x_min":120,"x_max":407,"o":"m 407 983 l 308 746 l 280 746 l 345 983 l 407 983 l 407 983 m 247 983 l 148 746 l 120 746 l 185 983 l 247 983 l 247 983 m 247 983 l 148 746 l 120 746 l 185 983 l 247 983 l 247 983 m 247 983 l 148 746 l 120 746 l 185 983 l 247 983 l 247 983 "},"„":{"ha":1057,"x_min":0,"x_max":0,"o":""},"†":{"ha":1057,"x_min":0,"x_max":0,"o":""},"‡":{"ha":1057,"x_min":0,"x_max":0,"o":""},"•":{"ha":1057,"x_min":0,"x_max":0,"o":""},"…":{"ha":1057,"x_min":0,"x_max":0,"o":""},"‹":{"ha":1057,"x_min":0,"x_max":0,"o":""},"›":{"ha":1057,"x_min":0,"x_max":0,"o":""},"⁄":{"ha":1057,"x_min":0,"x_max":0,"o":""},"∕":{"ha":1057,"x_min":0,"x_max":0,"o":""},"₣":{"ha":1057,"x_min":0,"x_max":0,"o":""},"₤":{"ha":1057,"x_min":0,"x_max":0,"o":""},"₧":{"ha":1057,"x_min":0,"x_max":0,"o":""},"€":{"ha":1057,"x_min":0,"x_max":0,"o":""},"№":{"ha":1057,"x_min":0,"x_max":0,"o":""},"™":{"ha":1057,"x_min":0,"x_max":0,"o":""},"∂":{"ha":1057,"x_min":0,"x_max":0,"o":""},"∆":{"ha":1057,"x_min":0,"x_max":0,"o":""},"∏":{"ha":1057,"x_min":0,"x_max":0,"o":""},"∑":{"ha":1057,"x_min":0,"x_max":0,"o":""},"−":{"ha":706,"x_min":120,"x_max":586,"o":"m 586 518 l 586 469 l 120 469 l 120 518 l 586 518 l 586 518 "},"√":{"ha":1057,"x_min":0,"x_max":0,"o":""},"∞":{"ha":1057,"x_min":0,"x_max":0,"o":""},"∫":{"ha":1057,"x_min":0,"x_max":0,"o":""},"≈":{"ha":1057,"x_min":0,"x_max":0,"o":""},"≤":{"ha":1057,"x_min":0,"x_max":0,"o":""},"≥":{"ha":1057,"x_min":0,"x_max":0,"o":""},"ﬁ":{"ha":810,"x_min":120,"x_max":690,"o":"m 372 950 q 313 931 335 950 q 281 882 291 913 q 271 812 271 850 l 271 682 l 651 682 l 651 633 l 322 633 l 271 633 l 222 633 l 189 633 l 120 633 l 120 682 l 222 682 l 222 802 q 236 907 222 863 q 283 975 250 951 q 372 999 316 999 q 441 985 407 999 q 500 955 474 972 l 473 913 q 428 939 454 928 q 372 950 401 950 l 372 950 m 222 305 l 271 305 l 271 0 l 222 0 l 222 305 l 222 305 m 679 825 q 651 813 667 813 q 623 825 634 813 q 612 852 612 836 q 623 880 612 869 q 651 892 634 892 q 679 880 667 892 q 690 852 690 869 q 679 825 690 836 l 679 825 m 676 682 l 676 0 l 627 0 l 627 682 l 676 682 l 676 682 "},"ﬂ":{"ha":1057,"x_min":0,"x_max":0,"o":""},"ﬀ":{"ha":1040,"x_min":120,"x_max":920,"o":"m 372 950 q 313 931 335 950 q 281 882 291 913 q 271 812 271 850 l 271 682 l 571 682 l 571 633 l 322 633 l 271 633 l 222 633 l 189 633 l 120 633 l 120 682 l 222 682 l 222 802 q 236 907 222 863 q 283 975 250 951 q 372 999 316 999 q 441 985 407 999 q 500 955 474 972 l 473 913 q 428 939 454 928 q 372 950 401 950 l 372 950 m 222 305 l 271 305 l 271 0 l 222 0 l 222 305 l 222 305 m 792 950 q 733 931 755 950 q 701 882 711 913 q 692 812 692 850 l 692 682 l 857 682 l 857 633 l 742 633 l 692 633 l 642 633 l 609 633 l 540 633 l 540 682 l 642 682 l 642 802 q 657 907 642 863 q 703 975 671 951 q 792 999 736 999 q 861 985 827 999 q 920 955 894 972 l 893 913 q 847 939 874 928 q 792 950 821 950 l 792 950 m 642 305 l 692 305 l 692 0 l 642 0 l 642 305 l 642 305 "},"ꝏ":{"ha":1489,"x_min":120,"x_max":1369,"o":"m 1328 517 q 1214 644 1287 596 q 1044 690 1141 690 l 1044 690 l 1044 643 l 1044 643 q 1189 602 1127 643 q 1283 493 1250 561 q 1315 342 1315 425 q 1283 191 1315 259 q 1189 82 1250 122 q 1044 41 1127 41 q 900 82 961 41 q 805 191 839 122 q 771 342 771 259 l 771 342 q 730 517 771 438 q 615 644 688 596 q 445 690 541 690 q 275 644 349 690 q 161 517 202 596 q 120 342 120 438 q 161 166 120 245 q 275 40 202 87 q 445 -7 349 -7 l 445 -7 l 445 41 l 445 41 q 301 82 362 41 q 207 191 239 122 q 174 342 174 259 q 207 493 174 425 q 301 602 239 561 q 445 643 362 643 q 589 602 528 643 q 684 493 651 561 q 718 342 718 425 l 718 342 q 760 167 718 246 q 874 40 801 87 q 1044 -7 948 -7 q 1214 40 1141 -7 q 1328 167 1287 87 q 1369 342 1369 246 q 1328 517 1369 438 l 1328 517 "}}}
